<svg width="138" height="334" viewBox="0 0 138 334" fill="none" xmlns="http://www.w3.org/2000/svg">
<path d="M85.0537 54.9201C75.463 47.0553 65.6772 53.9718 50.2875 54.6133C27.7048 55.5894 21.2924 67.8329 27.0914 76.5344C32.8904 85.2359 46.8303 82.2517 54.9434 89.5866C54.9713 89.6145 54.9991 89.6424 55.027 89.6424C55.0549 89.6703 55.0828 89.6982 55.1107 89.6982C63.5304 96.6984 62.5825 110.922 72.0338 115.412C81.485 119.902 92.6649 111.787 90.3788 89.2798C88.8175 73.9407 94.2262 63.2869 85.0537 54.9201Z" fill="#5D3001" fill-opacity="0.6"/>
<path d="M68.4373 28.3414C67.4615 39.9713 60.5752 48.8959 53.0755 48.2544C45.5759 47.613 40.3066 37.6843 41.2824 26.0545C42.2581 14.4246 49.1445 5.49995 56.6442 6.14141C64.116 6.78287 69.4131 16.7115 68.4373 28.3414Z" fill="#5D3001" fill-opacity="0.6"/>
<path d="M113.742 67.5538C102.367 70.2033 94.5607 78.2913 96.2614 85.6262C97.9621 92.9611 108.556 96.7541 119.931 94.1046C131.306 91.4551 139.113 83.3671 137.412 76.0322C135.684 68.6973 125.089 64.9043 113.742 67.5538Z" fill="#5D3001" fill-opacity="0.6"/>
<path d="M104.179 27.8673C97.8784 38.4374 87.2563 43.7364 80.4536 39.6645C73.623 35.5927 73.2048 23.7397 79.5056 13.1696C85.8064 2.59949 96.4287 -2.6995 103.231 1.37235C110.034 5.4442 110.48 17.2972 104.179 27.8673Z" fill="#5D3001" fill-opacity="0.6"/>
<path d="M109.031 32.0787C99.4677 39.8319 95.7875 51.1271 100.778 57.2907C105.769 63.4543 117.562 62.1713 127.124 54.4181C136.687 46.6648 140.367 35.3696 135.377 29.206C130.386 23.0425 118.593 24.3254 109.031 32.0787Z" fill="#5D3001" fill-opacity="0.6"/>
<path d="M54.3022 279.123C43.4012 282.163 43.4569 293.096 35.8736 304.949C24.7774 322.352 30.5486 333.536 40.0835 333.759C49.6184 333.982 54.6925 322.017 64.3947 319.758C64.4226 319.758 64.4505 319.73 64.4783 319.73C64.5062 319.73 64.5341 319.702 64.562 319.702C74.1805 317.081 84.3009 325.224 92.6091 320.511C100.917 315.798 100.694 303.192 82.6839 293.124C70.4725 286.291 65.3426 276.669 54.3022 279.123Z" fill="#5D3001" fill-opacity="0.6"/>
<path d="M25.7533 277.673C33.9221 284.506 36.9889 294.295 32.5839 299.566C28.1789 304.837 18.0028 303.582 9.83396 296.749C1.66517 289.916 -1.40164 280.127 3.00337 274.856C7.3805 269.585 17.5845 270.84 25.7533 277.673Z" fill="#5D3001" fill-opacity="0.6"/>
<path d="M78.725 264.314C74.766 274.187 76.6897 284.283 83.0742 286.849C89.4587 289.414 97.8227 283.474 101.782 273.601C105.741 263.728 103.817 253.632 97.4324 251.066C91.0479 248.501 82.7118 254.441 78.725 264.314Z" fill="#5D3001" fill-opacity="0.6"/>
<path d="M44.1259 250.704C48.7261 260.939 47.1091 271.649 40.5295 274.633C33.922 277.617 24.8331 271.704 20.233 261.469C15.6328 251.234 17.2498 240.524 23.8294 237.54C30.4369 234.556 39.4979 240.468 44.1259 250.704Z" fill="#5D3001" fill-opacity="0.6"/>
<path d="M64.2697 268.582C71.4885 268.074 76.7008 258.581 75.9117 247.38C75.1226 236.18 68.6309 227.512 61.4121 228.021C54.1933 228.53 48.981 238.023 49.7701 249.223C50.5592 260.424 57.0509 269.091 64.2697 268.582Z" fill="#5D3001" fill-opacity="0.6"/>
<path d="M34.6467 169.88C37.6856 172.474 37.6019 175.654 37.5183 180.451C37.4625 182.961 37.4067 185.833 37.8528 189.013C38.7171 195.371 37.6298 200.391 34.8976 202.455C33.5315 203.515 31.8308 203.682 30.1301 202.929C29.6841 202.734 29.2937 202.483 28.9034 202.176C27.3143 200.893 26.3384 198.662 25.3069 196.32C24.108 193.586 22.7419 190.463 20.0934 188.343L19.8983 188.204L19.7031 188.036C17.0545 185.917 13.7647 185.275 10.8373 184.69C8.32812 184.188 5.95831 183.714 4.36916 182.431C3.97884 182.124 3.64424 181.761 3.36544 181.371C2.27812 179.865 2.08301 178.164 2.80789 176.602C4.25764 173.478 8.91353 171.331 15.298 170.829C18.5042 170.578 21.2644 169.908 23.7178 169.323C28.3737 168.207 31.4684 167.482 34.6467 169.88ZM35.8456 168.402C29.9629 163.912 24.3032 168.235 15.1587 168.96C1.74844 170.02 -1.82018 177.438 1.83208 182.486C2.2224 183.044 2.69633 183.518 3.19817 183.909C7.21287 187.116 14.0713 185.945 18.5321 189.515C18.5879 189.57 18.6436 189.598 18.6994 189.654C18.7272 189.654 18.7273 189.682 18.7552 189.682C18.7831 189.682 18.783 189.71 18.8109 189.71C18.8388 189.738 18.8946 189.766 18.9225 189.794C23.4111 193.391 23.7177 200.419 27.7603 203.627C28.2622 204.017 28.7919 204.352 29.4331 204.631C35.1485 207.113 41.6166 202.037 39.7765 188.706C38.4662 179.642 41.4773 173.199 35.8456 168.402Z" fill="#5D3001" fill-opacity="0.6"/>
<path d="M20.0657 142.799C22.3519 144.64 23.6901 148.573 23.4949 152.868C23.3555 155.88 22.4912 158.613 21.0415 160.621C20.3166 161.653 18.7832 163.326 16.7758 163.242C15.9952 163.215 15.2146 162.88 14.4897 162.322C12.2035 160.481 10.8653 156.549 11.0604 152.254C11.1998 149.242 12.0641 146.509 13.5139 144.501C14.2388 143.469 15.7722 141.795 17.7795 141.879C18.5881 141.907 19.3408 142.242 20.0657 142.799ZM21.2645 141.321C20.2609 140.513 19.1178 140.038 17.8911 139.983C13.4303 139.76 9.52699 145.226 9.19243 152.17C8.94151 157.218 10.6422 161.653 13.3187 163.8C14.3224 164.609 15.4655 165.083 16.6922 165.139C21.153 165.362 25.0563 159.896 25.3908 152.951C25.6139 147.903 23.9132 143.469 21.2645 141.321Z" fill="#5D3001" fill-opacity="0.6"/>
<path d="M64.1997 178.303C64.9245 178.889 65.3985 179.586 65.6216 180.339C66.5137 183.602 62.5269 187.618 56.9231 189.152C52.7969 190.267 48.6707 189.821 46.3845 187.98C45.6596 187.395 45.1857 186.698 44.9626 185.945C44.0705 182.681 48.0573 178.665 53.6611 177.132C57.7873 176.016 61.9135 176.49 64.1997 178.303ZM65.3707 176.825C62.7221 174.705 58.0104 173.98 53.1593 175.319C46.4403 177.131 41.9795 182.124 43.1504 186.447C43.485 187.646 44.182 188.65 45.2135 189.459C47.8621 191.578 52.5738 192.303 57.4249 190.965C64.1439 189.152 68.6047 184.16 67.4337 179.837C67.1271 178.665 66.4022 177.634 65.3707 176.825Z" fill="#5D3001" fill-opacity="0.6"/>
<path d="M45.1576 138.17C47.834 140.317 47.7504 145.951 44.9903 150.999C43.4569 153.788 41.338 156.019 39.0519 157.274C37.8809 157.916 35.5948 158.836 33.6989 157.776C33.5038 157.665 33.3365 157.553 33.1692 157.414C30.4928 155.266 30.5764 149.632 33.3365 144.584C34.8699 141.796 36.9887 139.564 39.2749 138.309C40.4458 137.668 42.732 136.748 44.6278 137.807C44.7951 137.919 44.9903 138.058 45.1576 138.17ZM46.3285 136.692C46.0775 136.497 45.7987 136.301 45.5199 136.162C41.3658 133.903 35.1766 137.277 31.6359 143.692C28.3739 149.66 28.5691 156.186 31.9425 158.892C32.1934 159.087 32.4722 159.282 32.751 159.422C36.9051 161.681 43.0944 158.334 46.6352 151.891C49.925 145.923 49.7019 139.397 46.3285 136.692Z" fill="#5D3001" fill-opacity="0.6"/>
<path d="M63.3351 152.812C63.5024 152.951 63.6697 153.119 63.8091 153.286C66.1789 156.019 64.2552 161.737 59.6271 165.78C55.3058 169.546 49.8134 170.828 47.1648 168.709C46.9976 168.569 46.8302 168.402 46.6908 168.235C45.2411 166.589 45.6593 164.191 46.0217 162.88C46.7466 160.37 48.4751 157.804 50.8728 155.712C55.1942 151.975 60.6865 150.692 63.3351 152.812ZM64.534 151.334C61.1605 148.628 54.776 149.828 49.6461 154.318C44.1259 159.143 42.1743 165.92 45.2689 169.49C45.492 169.741 45.7429 169.964 45.9938 170.187C49.3673 172.892 55.7518 171.693 60.8817 167.203C66.4019 162.378 68.3535 155.601 65.2589 152.031C65.0358 151.78 64.7849 151.557 64.534 151.334Z" fill="#5D3001" fill-opacity="0.6"/>
</svg>
